<?xml version="1.0" encoding="UTF-8"?>
<svg id="Capa_2" data-name="Capa 2" xmlns="http://www.w3.org/2000/svg" viewBox="0 0 990.29 808.46">
  <defs>
    <style>
      .cls-1 {
        fill: #d66916;
      }
    </style>
  </defs>
  <g id="Capa_1-2" data-name="Capa 1">
    <path class="cls-1" d="M980.39,409.96c-2.9-.82-6.67-.69-9.06-3.23-1.79-1.9-4.71-.81-5.97-1.61-2.92-1.86-5.9-3.39-9.51-4.84-11.82-4.75-52.53-34.9-57.31-41.16l-11.4-14.93c-1.92-2.52-4.38-5.13-6.44-7.83-13.4-17.58-27.48-34.98-45.52-48.21-4.12-3.02-8.9-2.67-12.65-7.45l-4.78-6.08c-2.99-3.8-8.56-5.24-11.96-8.68-5.12-5.2-10.63-9.92-15.01-15.63-2.05-2.67-3.53-4.03-6.03-6.22l-13.82-12.1-8.95-5.35c-3.77-2.25-7.3-6.18-11.56-7.84l-8.8-3.42c-12.02-4.68-43.65,3.97-55.8,7.4-8.31,2.34-15.21,6.5-22.57,10.24l-9.24,4.7c-1.18.6-40.91,18.59-41.28,18.72l-21.52,7.6c-2.42.85-3.94,4.05-6.75,3.13-15.3-40.69-30.08-81.27-41.27-123.94-11.29-43.02-20.04-85.59-24.3-129.89-.61-6.37-3.67-12.61-11.22-12.92-22.61-.91-24.01-1.5-30.38,13.03l-92.58,211.06-10.14,23.22-73.51,167.02-10.07,22.93-21.59,49.5c-10.2-2.42-5.85-1.05-11.07-1.64-1.67-.19-1.39-4.44-2.57-4.74-3.58-.91-6.75-3.98-9.9-5.98-18.62-11.82-40.81-7.24-62.03-8.69,1.46-3.71-1.72-6.58-1.59-9.22.51-10.61,1.98-20.64,1.29-30.81l-2.13-31.6c14.68,5.94,26.27-.94,36.45-10.07,4.36-3.91,14.77,1.95,16.87-24.13.29-3.62,7.04-9.79-6.99-19.86,3.11-6.87.46-12.16-3.36-17.4-10.48-14.38-12.29-7.98-17.18-10.58-3.54-1.88,2.61-4.6-9.46-8.86-.46-5.79-3.39-10.81-9.48-12.18-10.36-2.31-18.78-12.31-30.9-8.07-3.84,1.34-3.98,6.49-6.49,8.67-3.87,3.37-20.75,3.99-20.88,18.91-3.12,2.77-9.66,2.29-13.57,1.41-3.22-.72-5.43,2.45-7.91,3.1-3.09.81-5.49,1-6.93,2.57-6.39,7,.48,11.97-5.39,18.7-3.16,3.62-.59,7.8-.25,11.87l1,12.04c.29,3.53,6.78.39,8.81,1.37,2.99,1.44,4.67,5.85,8.6,6.3.77,2.63.83,4.91,2.18,6.77,2.35,3.24,7.39,1.47,10.09,3.43,3.77,2.74,6.68,8.36,12.3,8.65,1.66.09,4.62-2.97,6.42-1.32,2,1.82,2.29,6.13,5.88,5.97,2.23-.1,2.31,1.07,3.28,1.96,1.79,1.64-1.34,1.87-1.48,3.34-.62,6.54.21,13.14.78,19.83.13,1.58,2.03,2.94,1.86,5.02-1.07,13.76,1.42,27.22,2.08,41.34-.49,3.02-5.35-.56-7.16-.77-26.77-3.05-25.74,3.19-33.38,3.86-11.58,1.01-22.3,6.19-30.4,14.21-.96.95-1.24,4.11-3.43,3.35-3.7-1.29-5.26,2.71-7.62,3.26-7.03,1.64-12.49,4.05-18.5,7.92l-21.45,13.78c-4.84,3.11-8.21,8.5-13.69,11.01-4.4,2.01-7.38,5.24-10.87,7.79-3.01,2.2-7.46,2.42-11.26,6.73,2.44,1.44,5.29-1.82,7.97-2.06,2.33-.2,27.49-2.88,24.73-6.59-1.7.56-3.42,1.52-5.05,1.49,1.63.03,3.35-.93,5.05-1.49,20.57-6.79,29.39-15,36.84-17.78,9.17-3.42,25.37-12.69,31.08-20.87-.18.26.23-4.88,1.11-2.78.13.32,1.42,1.66,1.85,1.58,8.12-7.83,21.5-10.43,24.38-11.99,6.83-3.69,12.83-6.77,20.8-7.03,3.82-.12,7.7-1.87,11.62.26-6.2,7.11.55.95-2.45,16.81-1.15,6.09,1.44,13.15-.97,18.93-1.92,4.62-2.26,10.18,2.17,13.46,1.27.14,3.3-2.44,2.9-3.99-.85-3.23,1.55-5.31,1.88-7.83l1.45-10.99.73-10.9c.5-7.47.84-15.19-.25-22.41-.35-2.33-1.71-2.66-1.02-5.41,2.18-8.68,2.67-18.9.21-27.59-1.41-4.99-.24-9.49-1.05-14.56-.7-4.42-3.13-8.18-1.86-13.22.63-2.48-.65-4.84-1.2-7.36,11.54.7,14.17-6.6,15.29,1.32.18,1.29-2.39,1.88-2.54,3.19-.83,7.28.07,14.31.31,21.67l.56,17.4c.13,4.1-.87,18.04.36,22.09,3.04,10.06,2.41,20.07,2.74,30.54.13,4.2,4.18,8.18,2.79,12.72-1.43,4.66-.74,10.11,3.61,12.77,4.17-4.39,1.56-22.59.94-28.34-.59-5.46,1.02-10.91-.16-16.82,1.55.17,2.98.37,3.63,1.06,5.25,5.64,12.31,6.43,18.99,8.85l8.34,3.02c9.34,3.38,19.09,5.68,27.37,10.95,2.54,1.62,3.77,3.53,7.26,3.94,3.83.44,7.51,4.06,11.97,1.66,1.4,2.4.17,4.62-.98,7.25l-29.41,66.91-30.21,69.16c-1.57,3.59-.28,8.54,1.92,11.21,1.74,2.1,5.03,4.83,9.04,4.91l57.36,1.05c9.12.17,17.13-.77,19.81-11.1,1.29-4.96,3.83-10.6,5.61-15.78,2.34-6.81,3.61-13.28,7.24-19.85l41.76,11.29c3.44.93,7.58,1.11,11.08.45,4.33-.82,6.58,2.08,9.43,2.65,4.27.87,6.24,3.14,9.6,5.1,5.3,3.09,13.21,2.48,19.19,4.74l11.73,4.44,16.15,5.82c13.06,4.71,26.01,7.77,39.07,11.62,5.09,1.5,9.44,4.03,14.72,5.25,8.74,2.01,16.82,4.79,25.7,5.93,3.73.48,7.94,2.98,11.7,3.74l8,1.63,20.89,7.53c9.86,3.55,21.83,9.73,26.7,19.12,2.1,4.04.87,10.08.44,14.45-.31,3.18-3.37,5.31-3.99,7.9-3.67,2.77-5.66,7.26-9.18,10.71-2.18,2.14-6.01,2.71-6.11,5.76-3.63.48-5.78,3.11-8.82,5.45-2.38,1.83-6.02,2.69-8.28,4.91-3.08,3.03-7.37,2.43-10.17,3.99-5.04,2.81-9.26,5.57-14.73,6.94,5.78,1.81,9.88-1.83,14.81-3.36,4.1-1.27,9-1.87,12.3-4.33,4.79-3.56,11.05-4.12,14.91-7.72,3.16-2.94,7.01-3.87,10.61-6.19,1.98-1.27,2.94-3.92,5.44-4.63,2.12-.6,3.34-2,3.59-3.82.61-.05,1.58-.23,1.6-.82l.08-2.35c.04-1.09,1.84-1.34,2.58-1.81,1.25-.8.36-2.21.64-3.68.21-1.08,1.71-1.73,2.14-2.38.75-1.14-.86-3.02-.42-4.48.58-1.9,3.28-1.96,3.84-3.15.95-2.02-.87-11.76-.94-12.49-.45-4.29-2.2-7.06-5.31-10.55l-9.14-10.23c-1.55-1.73-11.28-3.73-11.42-3.13-.11-.19-.11-.43.27-.76.25-.21.61-.66.72-.97,1.24-3.45-3.47-2.09-4.47-3.1-5.86-5.89-12.91-7.09-20.35-8.83,2.41.56-23.93-8.07-25.19-8.47l-14.84-4.71c-3.35-1.06-6.71-2.54-9.11,1.01-.83-1.92-.79-2.73-1.18-3.39.04.07-17.42-6.22-22.94-6.23-2.54,0-3.76.1-5.28-2.41-1.81-2.99-6.33-1.24-8.79-2.26-5.99-2.47-11.23-6.13-18.15-6.37-1.32-.05-3.63,1.71-4.71.32-1.17-1.52-2.1-3.04-4.11-3.07-1.14-.01-2.35-.14-4.34,1.43-1.39-6.78-26.12-10-26.5-10.17-3.4-1.56-6.28-3.59-10.24-4.18l-9.2-1.37-16.07-4.82c-11.57-3.47-7.52,5.78-13.01-2.45-.98-1.47-15.25-.69-14.37-.85-1.62.29-2.16,1.87-3.46,1.37-2.23-.87-1.79-2.06-2.38-3.9-.98-3.05-5.29-2.56-8.95-2.33l47.97-137.9c1.94-5.57,10.92-6.52,15.59-6.22,14.08.89,26.85.33,40.65.98l18.57.88,90.15.85,43.9,1c25.04.57,37.9,5.84,46.62,29.33l49.76,134.13-8.68,6.2c-.97.69-3.25-.66-3.79-1.6-2.3-4.01-5.73-3.1-9.32-3l-10.76.3c-1.78-.2-2.98-4.46-4.48-5.4-2.21-1.4-5.68.81-7.41,0-7.12-3.29-13.71-4.51-21.46-5.07-2.83-.2-6.11-2.97-9.5-2.96-5.66.01-10.18-3-15.34-4.24l-9.66-2.31c-3.68-.88-7.91.25-11.31-2.03-3.23-2.17-23.95-7.03-27.15-8l-22.55-6.82-10.7-4.09c-5.67-2.16-15.89-7.6-16.76-14.1-1.01-7.46,9.54-15.31,12.06-15.73,2.22-.37,3.07-1.26,5.29-2.74,3.83-2.55,9.25-2.78,13.45-5.05,3.04-1.65,5.58-3.1,8.69-3.56-2.23-.95-3.88-1.4-5.33-1.17-.89.14-1.2,2.49-1.87,2.41l-3.6-.45c-4.36-.55-18.8,8.64-18.77,8.62h0c-5.65,2.94-11.93,5.94-13.91,12.76-2.52,8.72,4.6,15.23,11.03,19.33,9.94,6.34,19.83,11.88,30.64,16.5,2.69,1.15,5.1,1.05,7.71,1.97l13.3,4.64c5.92,2.07,12.03,1.91,17.66,4.45l10.99,4.97,38.52,10.6,53.1,14.84c5.96,1.66,11.44,3.33,17.66,2.75l6.07,14.39c1.52,3.6,6.76,6.14,10.75,6.2l33.7.49,18.72,6.12,15.53,4.31c2.9.81,5.51.19,8.18,1.97-.92-.62,14.7,2.18,16.24,3.23,8.08,5.47,23.03,7.23,30.89,23.75,1.56,3.29,1.07,10.53,1.03,13.96-10.36,11.73-22.13,20.96-33.78,31.22l-9.21,8.12c-4.77,4.21-9.95,6.68-14.98,10.45l-17.34,12.97c-4.51,3.38-10.18,5.75-15.94,8.98l-8.92,4.99c-2.59,1.45-6.27,3.25-8.99,5.14-3.47,2.41-8.62,1.91-9.8,7.42,1.07.05,33.78-16.12,30.47-12.86,4.08-4.02,7.99-4.3,12.96-6.34l10.73-4.39c2.19-.89,3.88-3.75,6.91-4,.88-.07.47-3.19.53-3.64,2.4.69,4.32-2.53,5.87-3.52,1.7-1.08,5.3,1.25,7.5-1.94,2.89-4.19,8.8-3.51,10.8-6.63,6.5-10.14,10.83-3.38,15.07-12.25,1-2.09,3.62-3.26,3.6-6.52,1.5.86,2.37,2,3.99,1.64,1.34-.3,2.08-2.23,2.56-3.93,7.69-1.78,13.08-8.47,17.09-15.21-.96,1.62,7.91-8.31,6.57-14.64-3.17-15.03,1.28-7.04-4.35-19.15-2.8-6.02-6.32-10.44-11.28-14.85-3.29-2.92-6.27-6.72-11.27-3.86.8-8.34-20.09-8.56-23.76-13.11,4.13-4.68,5.07-11.02,2.31-16.17l-14.95-27.82c-1.8-3.35-4.38-5.57-5.55-10.29,19.12-1.21,3.88-1.92,17.37,2.07l15.26,4.51,13.91,5.89c5.07,2.15,9.78,4.15,15.55,5.32,3.21.65,6.38,3.34,9.32-.98,1.05,1.03,1.25,2.66,2.28,3.26,3.8.29,7.02-1.54,10.15-3.1.61,1.08.28,4.43,1.61,4.42l51.09-.42c8.45-.07,21.16-4.46,32.55-2.47,7.96,1.39,16.3.36,24.66.61-12.53-4.18-25.45-5.57-38.71-7.08-6.54-.74-11.61-2.09-18.42-.79-3.05.58-7.31.99-10.56.91.59-.29-33.2-4.33-30.9-4.02l-19.15-2.55c-2.76-.37-6.06-2.73-9.07-1.64-5.86,2.12-7.99-3.09-11.56-4.97-7.7-4.06-16.64-5.72-24.34-10.63-1.28-.81-3.21-.25-4.6-1.3-.88-5.57.41-11.21,0-16.78-.41-5.59-.49-10.82-.24-16.64.24-5.72-3.77-11.35-3.16-16.46,1.07-9.05,2.38-42.75-1.36-49.57h0c-.17-2.32-.03-6.58.67-9.2,1.33-.54,3.8.37,4-1.3,6.08-1.01,13.41,2.04,18.38-1.46,2.08-1.47,3.35-3.64,6.21-2.19.93-.79,1.72-2.77,3-2.9,2.09-.21,4.41,3.04,7.78,3.25,1.47.09,1.97-2.33,3.05-2.82,4.42-2.03,4.27-5.25,5.49-9.16.99-3.17,3.14-5.27,1.42-9.26-.34-.8.51-2.25-.21-2.78-1.15-.85-2.05-.76-3.74-1.78,3.13.46,8.76-11.23,5.8-16.07-1.65-2.7-4.72-4.19-6.62-6.32-3.58-4-7.37-6.18-12.63-7.32-2.39-.52-4.31-3.39-7.85-3.41,3.87-15.91-4.84-16.63-13.1-25.91-1.24-3.06-.14-7.12-2.7-9.81-5.76-6.06-16.36-.24-16.8-.15-5.38,1.11-10.8-2.96-16.17-3.62-3.64-.45-5.52,5.29-7.84,5.74-10.04,1.97-5.21-1.98-15.54,12.51l-19.6.89c-3.66,3.18,7.26,19.91-2.64,13.26-3.42-2.3-6.29.78-8.98,2.79-2.76,2.07-.2,6.23-1.16,8.79.22-.59-7.65,9.67-.65,17.29,2.3,2.51,5.06,3.39,8.88,3.74-.06,7.23,7.99,15.38,12.99,18.55,5.33,3.39,11.53,1.15,17.14,1.39,10.35.43,18.72,21.02,26.55,8.58-13.01-1.14-9.71-7.48-20.22-13.35-11.26-6.29-13.54,8.42-25.28-7.63-3.05-4.17-4.02-8.52-2.82-13.61-2.1-2.43-12.41,1.68-13.54-6.23,1.41-3.09,6.92-3.08,10.16-4.56-.44-2.99-2.77-4.47-4.83-6.55,1.89-3.33,8.82,2.25,13.4-4.17,2.85-4.01.52-6.6-1.46-12.44,10.97,3.64,20.16-.84,24.97-10.56,13.81-.33,7.21-2.24,12.68-4.56,2.07-.88,3,.74,5.13,1.42,10.91,3.44,15.8-4.99,18.51-.61.96,12.26,9.85,13,13.86,18.34,3.16,4.2-1.2,10.08.51,14.12,1.9,4.49,8.84,7.18,13.62,8.04,4.98.9,12.2,4.91,11.28,10.97-.69,4.52-2.71,9.84.92,14.39-.59,3.03-4.33,5.95-3.6,9.77-2.52.33-4.06-.78-6.5-1.18-5.67,7.21-13.62,3.01-19.37,2.79,2.46,3.09,3.16,4.81,5.3,6.15-3.73,4.67-11.39-2.14-15.4-4.48.58,3.03,1.31,5.49-.12,7.66-10.71-.07-8.83,1.83-15.12-4.74.42,4.91,3.98,6.97,7.37,10.51-3.74,6.05-3.12,12.23-2.73,18.77.06,1.06.56,22.29,1.72,19.24-.03-.9-.13-3.92-.09-7.28-.04,3.36.06,6.38.09,7.28.22,7.65-.98,15.94.73,23.82,1.87,8.6,2.34,16.73,2.8,25.52.34,6.5,3.49,12.61,1.53,19.7-4.44-2.26-13.28.08-14.44-2.16-.43-.83-.88-3.11-.36-4.15,2.69-5.33,1.11-10.38,1.92-15.37,3.21-19.73-.2-22.07-.18-24.78.07-16.1-.25-31.45-2.95-47.63l-2.69-16.1c-.2-1.18-1.38-1.74-2.09-1.49-1.88.64-2.45,8.89-2.7,8.25.72,1.8-1.14,1.95-1.57,3.46-1.1,3.84,1.49,8.49.74,12.45-.57,3.02.28,4.54,1.14,7.06,1.8,5.31.09,11.26.67,17.01.81,8.01,1.36,15.86,2.95,23.48.38,1.8.63,2.05.47,3.84l-1.04,12.03c-.56,6.5,1.41,13.7-1.39,19.84-1.53,1.75-6.89,1.51-9.21.49l-44.12-80.9-48.09-90.99c-8.48-16.04-68.36-147.23-66.18-145.39-.31-.26-.55-.5-.74-.74.19.24.44.48.74.74-.13-4.25,2.86-5.34,6.75-6.52l20.88-6.35c.89-.27,1.73.11,2.52-.13.57-.17,1.43-.86,1.07-1.72,3.49-.29,15.65-2.09,15.84-2.17l8.87-3.8c1.63-.7,3.02-1.51,4.2-2.24,2.49,1.38,5.13-1.94,6.96-1.81,4.44.33,9.91-3,13.86-4.67,4.8-2.03,10.05-1.43,12.69-7.6.85,1.46,1.59,1.87,2.5,2.38,1.27.72,2.05-1.3,3.22-1.48,3.51-.53,8.07.59,11.08-2.11,2.93-2.63,6.23-3.86,9.98-2.35,3.02,1.22,6.14-2.35,8.57-2.06,4.17.5,19.86.54,24.8,1.28l16.5,10.17c1.04.64,2.89.16,3.69.4,1.97.59-.08,3.14.89,4.1,2.88,2.86,7.52,4.43,9.37,8.27,2.1,4.37,6.81,4.94,9.62,7.8,2.07,2.11,4.08,3.92,6.48,5.71,1.43,1.07,2.76,4.06,4.22,5.54,4.33,4.4,9.56,7.33,13.81,11.21,3.85,3.51,7.73,5.71,12.28,8.86l15.45,10.7c.95.66,2.44-.16,3.15.05,1.53.44,1.06,2.49,1.76,3.78,3.7,6.82,12.34,6.04,14.1,8.62.49.72-1.63,1.92-1.72,2.93-.29,3.45,4.62,4.1,6.13,6.19,1.48,2.05,2.14,4.49,4.58,6.24,4.79,3.44,7.65,8.48,11.47,12.55,2.93,3.13,5.61,5.27,7.8,9.06,2.87,4.98,8.84,7.9,12.67,12.1,4.15,4.55,7.88,8.72,13.05,12.08,12.59,8.16,25.14,15.17,38.79,21.32,2.63,1.19,5.87,3.29,8.11,4.82,3.16,2.15,6.11,1.61,8.54,2.7,6.8,3.04,21.07,9.12,29.28,5.56l-9.9-2.8ZM15.52,528.8c-.33.22-.66.45-1.01.63-.52.27-1.07.45-1.7.38-.24-.03-.46-.09-.66-.19.2.1.42.16.66.19.63.07,1.18-.11,1.7-.38.35-.18.68-.41,1.01-.63.49-.33.99-.66,1.52-.84-.54.18-1.03.51-1.52.84ZM17.65,527.85c.2,0,.4.01.59.05-.2-.04-.39-.06-.59-.05ZM20.94,528.84c.16.02.32.02.47,0,.47-.09.86-.3,1.23-.55-.37.25-.76.46-1.23.55-.15.03-.31.03-.47,0ZM24.83,525.84h0c.85.98,1.76,1.35,2.69,1.39-.93-.05-1.84-.41-2.69-1.39ZM179.83,384.86c-.47-.89-1.3-1.38-2.35-1.57-.7-.13-1.51-.13-2.38-.05-4.8.49-11.62,3.77-14.5,3.93-.49.03-.94-.61-1.35-1.3-.2-.34-.4-.7-.58-.99-.18-.29-.36-.52-.52-.61-.15-.08-.29-.11-.42-.1-.13.01-.25.06-.36.14-.34.25-.62.76-.91,1.27-.19.34-.39.67-.62.91-.11.12-.23.22-.36.28-.51.25-1.03.39-1.55.43-3.66.34-7.37-3.85-7.14-7.83-.26.05-.48.12-.66.2-.37.16-.59.38-.74.63-.22.37-.25.79-.29,1.17-.03.25-.06.49-.16.67-.48.9-4.24,1.76-6.81,1.82-.43.01-.82,0-1.16-.04-.34-.04-.63-.1-.84-.19-1-.44-2.02-1.88-2.9-3.52-.44-.82-.85-1.69-1.22-2.51-.48-1.09-.87-2.09-1.13-2.77-.2-.5-.32-.82-.35-.86-.1-.11-.33-.23-.66-.37-.5-.2-1.22-.43-2.03-.65-.54-.15-1.13-.29-1.72-.43-.88-.2-1.78-.38-2.56-.51-.52-.09-.99-.15-1.37-.19-.76-.07-1.16-.03-.9.2-.2-.17-.35-.44-.44-.74-.18-.61-.12-1.38.22-1.92.17-.27.4-.48.71-.59l7.52-2.58c-2.74-.63-4.77-1.23-6.31-1.8-1.03-.38-1.84-.75-2.5-1.1-.66-.35-1.16-.69-1.58-1.01-1.46-1.13-1.83-2.07-3.89-2.79-.59-.2-1.31-.39-2.24-.56-.4-.07-.64-.34-.79-.74-.14-.39-.19-.91-.21-1.46,0-.28,0-.57,0-.85,0-.87.03-1.74-.16-2.35-.53-.01-.96.07-1.32.23-1.09.46-1.57,1.48-2.47,2.02l-3.32-4.53c-.41-.56-.63-1.26-.76-2.05-.24-1.58-.07-3.52-.11-5.3-.02-.89-.08-1.74-.28-2.5,1.08-.33,1.95-.95,2.63-1.77.46-.55.83-1.19,1.14-1.89.77-1.76,1.12-3.92,1.23-6.08.13-2.59-.07-5.19-.29-7.1.77-1.81,2.69-2.62,5.21-2.94,1.26-.16,2.67-.2,4.16-.17,2.23.04,4.65.22,7.01.32.79.03,1.57.06,2.34.07s1.52,0,2.25-.02c.73-.03,1.43-.08,2.11-.16,2.69-.33,4.88-1.17,6-3,.29-.48.51-1,.68-1.56.33-1.12.47-2.38.6-3.67.13-1.29.26-2.6.57-3.82.47-1.83,1.37-3.45,3.36-4.47,8.93-4.59,9.73-3.52,12.43-4.38.62-.2,1.34-.5,2.29-1,.33-.18.61-.41.84-.68.7-.81,1-1.99,1.25-3.14.17-.77.32-1.54.55-2.19.23-.65.55-1.18,1.05-1.48.42-.25.86-.45,1.33-.61.93-.31,1.93-.43,3-.4,3.72.1,8.18,2.04,12.52,4.17,1.24.61,2.48,1.24,3.68,1.84,2.41,1.21,4.71,2.33,6.74,3.06-.02.23-.06.46-.11.7-.35,1.68-1.28,3.66-.5,5.36.67,1.47,1.8,2.31,3.12,2.88.44.19.9.35,1.37.5,1.88.59,3.91.91,5.42,1.83,3.07,8.05,3.17,6.97,6.8,8.07,1.65.5,4.02,1.45,7.73,3.91.11.07.21.1.31.11.62.02,1.2-1.02,2.14-1.14.31-.04.67.01,1.08.25.2.12.42.27.66.49.47.42,1,1.05,1.6,1.97.91,1.37,1.99,3.38,3.29,6.26.43.96.89,2.02,1.38,3.19-1.08,1.26-2.14,2.37-3.11,3.51-.32.38-.64.77-.94,1.16-.91,1.19-1.7,2.47-2.34,4.03-.21.52-.4,1.07-.58,1.65.74.1,1.47.2,2.2.3,1.45.21,2.86.45,4.19.8,3.31.87,6.05,2.43,7.42,5.87.38.97.17,2.03-.37,3.06-.36.69-.86,1.37-1.43,2-.85.95-1.84,1.8-2.7,2.43.45.72.98,1.55,1.5,2.45.77,1.35,1.49,2.84,1.8,4.35.31,1.51.21,3.03-.67,4.42-.39.62-.84,1.19-1.33,1.7-.99,1.02-2.16,1.82-3.45,2.42-.64.3-1.31.54-2,.74-1.38.39-2.83.58-4.27.58-.72,0-1.45-.04-2.16-.13-.71-.09-1.41-.22-2.1-.4-.81,3.01-2.23,5.44-4.04,7.45-3.01,3.34-7.11,5.52-11.33,7.31-1.77.75-3.48,1.21-5.1,1.37-4.05.39-7.57-1.11-10.2-4.6-.53-.7-1.02-1.48-1.47-2.33ZM564.78,724.57c-.1,1.09-.04,2.29-.12,3.67,0,.18-.07.33-.17.47.1-.14.16-.3.16-.47.08-1.38.02-2.58.12-3.67ZM564.48,728.72c-.13.19-.35.35-.59.49.25-.15.46-.31.59-.49ZM576.7,409.79c-1.5,3.23-4.23,7.08-8.75,7.17-15.6.29-30.46-.42-46.16-.58l-93.77-.94c-13.99-.14-36.9-1.19-41.97-15.21-3.1-8.59-2.3-17.85-.35-26.69,3.72-16.9,8.91-32.26,15.02-48.59l61.46-164.43c1.97-5.26,5.23-8.96,10.38-9.4,4.19-.36,10.71,1.84,12.12,6.99,22.69,83.23,52.86,163.26,90.97,240.54,2.02,4.1,2.74,7.56,1.08,11.14ZM482.95,553.08c.04-.13.08-.24.08-.35,0,.1-.04.22-.08.35ZM734.31,783.75c-.47-.09-1.04-.32-1.36-.64-.16-.16-.26-.34-.25-.54,0,.2.09.38.25.54.32.32.89.55,1.36.64.71.14,1.37.22,1.98.26-.61-.04-1.27-.13-1.98-.26ZM745.7,779c-.67.74-1.33,1.58-2.11,2.37.78-.79,1.44-1.63,2.11-2.37.9-.98,1.82-1.77,3.1-1.97-1.28.2-2.21.98-3.1,1.97ZM775.02,489.7c.24-1.64.57-3.28.69-4.54.03-.32.05-.61.05-.87,0,.26-.02.56-.05.87-.12,1.27-.45,2.9-.69,4.54-.18,1.23-.31,2.46-.27,3.54-.04-1.08.09-2.31.27-3.54ZM772.65,488.36c.01,1.04.16,2.11.32,3.13-.16-1.02-.31-2.08-.32-3.13ZM771.09,495.47c0,.08.02.17.06.28.07.2.21.44.34.69-.14-.24-.27-.48-.34-.69-.04-.1-.06-.19-.06-.28ZM771.88,497.76c.08-.16.05-.37-.03-.6.08.23.11.44.03.6-.77,1.55-1.43,3.24-1.42,4.82,0-1.58.65-3.26,1.42-4.82ZM770.44,518.05c.02-1.67.08-3.42.21-5.04.08-1.02.19-1.97.32-2.82-.14.85-.24,1.8-.32,2.82-.12,1.61-.18,3.36-.21,5.04ZM771.04,509.77c.12-.64.26-1.19.42-1.65-.16.46-.3,1.01-.42,1.65ZM771.78,507.41c.06-.1.11-.23.17-.31-.06.08-.11.21-.17.31ZM772.96,506.79c-1.38-.86-2.09-1.91-2.37-3.04.27,1.14.99,2.18,2.37,3.04h0ZM773.18,494.45c.07-.03.16-.05.23-.09-.04-.44-.11-.9-.18-1.38.08.48.14.94.18,1.38-.07.04-.15.06-.23.09Z"/>
  </g>
</svg>