<?xml version="1.0" encoding="UTF-8"?>
<svg id="Capa_2" data-name="Capa 2" xmlns="http://www.w3.org/2000/svg" viewBox="0 0 1372.71 769.31">
  <defs>
    <style>
      .cls-1 {
        fill: #fff;
      }
    </style>
  </defs>
  <g id="Capa_1-2" data-name="Capa 1">
    <g>
      <path class="cls-1" d="M1057.77,563.93c-1.5-.36-4.57-1-6.23.54-19.57,18.16-43.07,32.06-69.82,36.33-26.84,4.29-18.93,1.64-35.62,1.01-19.8-.75-26.98-19.74-26.99-36.84l-.1-99.87c0-3.69,3.33-5.82,6.47-5.72,16.13.51,31.56-.47,47.34.98,16.5,1.52,36.46,7.72,36.5-2.15l.09-18.41c.01-2.52-1.64-4.54-3.09-5.63-1.56-1.17-4.45-1.67-6.48-.51-5.7,3.28-35.88,4.64-43.43,5.15-11.65.79-36.92,2.92-37.01-14.39l-.48-90.05c-.01-2.06,1.87-5.51,4.02-5.5l62.71.29c7.93.04,15.58,2.05,23.16,3.52,12.8,2.48,24.22,7.16,35.14,14.18,1.88,1.21,4.22,2.31,5.89,1.55,1.55-.71,3.66-2.65,3.69-5.01l.32-21.31c.1-6.69-3.09-14.68-10.95-14.67l-158.66.12c-6.43,0-10.63,7.56-10.63,13.66l-.04,291.61c0,5.16,2.87,9.32,8.13,9.32l158.51.07c3.75,0,7.05-1.7,8.03-5.25l13.22-47.89c.65-2.37-2.1-4.75-3.69-5.14Z"/>
      <path class="cls-1" d="M1369.78,608.91l-35.15-62.1c-42.38-74.87-81.47-155.05-92.06-241.49-3.46-3.97-12.79-4.3-17.21-.81l-129.85,308.5c-1.77,4.21.74,8.61,5.08,8.87,10.55.63,20.93.27,31.62.18,3.2-.03,4.68-3.75,5.53-6.34l26.05-79.33c1.32-4.02,2.6-9.96,5.96-12.53l101.3-.21c8.29-.02,15.76,4.21,19.02,12.54l31.57,80.69c1.4,3.58,4.16,5.38,8.05,5.36l37.33-.22c3.42-.02,5.18-3.69,5.61-5.83.54-2.65-1.52-4.92-2.85-7.27ZM1272.74,501.87c-.77,1.17-3.47,1.5-5.66,1.49l-71.21-.13c-4.38,0-11.01-1.38-12.65-4.97-3.57-7.82-1.43-17.2,1.31-25.15l16.38-47.46,16.59-46.24c.83-2.3,3.24-3.32,4.94-3.49,2.06-.2,4.93,1.13,5.74,3.99,11.43,40.2,26.93,78.16,45.6,115.51,1,2.01-.29,5.3-1.05,6.44Z"/>
      <path class="cls-1" d="M665.47,307.5l-106.55.2c-7.54.01-9.54,8.49-9.53,14.68l.17,294.27c0,3.51,3.68,5.61,6.62,5.6l110.25-.46c10.23-.04,20.01-1.98,29.89-3.29,20.62-2.74,39.75-8.44,58.08-18,31.64-16.5,54.2-45.15,61.49-80.02l2.09-9.97c2.81-13.45,3.65-34.55,2.91-48.37-1.84-34.5-11.54-68.25-32.89-95.55-19.07-24.38-44.69-41.29-74.03-49.95l-16.83-4.97c3.52-3.86,7.6-5.27,10.83-8.05,3.77-3.23,3.86-6.64,5.24-9.88,4.84-11.32-1.01-15.89-10.91-23.14-5.61-4.12-10.82-5.75-17.38-8.02l-16.92-5.85-72.5-22.02c-9.38-2.85-18.84-5.05-28.68-5.79-4.09-.31-5.84-.41-9.32-2.75-4.57-3.07-22.67-2.37-35.61-16.43-5.05-5.49-3.09-13.31,2.58-17.87,3.89-3.13,8.03-5.2,12.24-8.11h0s0,0,0,0l31.57-6.3c-12.2-2.02-23.38,1.29-34.83,4.52-7.31,1.38-14.23,5.82-18.27,12.6-3.72,6.25-1.35,12.51,2.15,18.18,4.84,7.85,12.58,12.19,21.16,15.34,9.22,3.39,18.27,6.52,27.8,8.5l22.1,4.6,17.53,6.38c12.99,4.73,26.04,8,39.23,12.3l12.06,3.93c10.17,3.32,61.27,10.32,50.53,31.66-11.84,23.52-26.67,12.02-42.27,12.05ZM719.56,352.21c13.37,9.62,23.58,21.92,31.79,36.37,12.85,22.64,17.2,48.25,18.95,74.21,1.44,21.28-.75,41.74-5.91,62.45-7.57,30.33-26.67,53.22-55.13,66.08-20.09,9.08-41.32,10.66-63.13,11.7-6.64.32-12.93-1-19.66-1.48-14.6-1.03-27.17-10-29.61-25.1-1.09-6.76-1.87-13.47-1.87-21l-.02-219.63c0-4.21,2.39-7.11,6.47-7.06l54.55.73c23.21.31,44.91,9.29,63.58,22.73Z"/>
      <path class="cls-1" d="M491.52,612.48l11.19-40.85c.7-2.55-.14-5.76-1.64-6.91-1.34-1.03-5.44-2.11-7.28-.36-22.91,21.86-48.4,37.93-81.64,37.73-4.9,3.08-9.67.59-14.74.4-11.87-.43-23.42-4.81-28.04-16.2-3.43-8.47-4.08-17.18-4.08-26.86l.03-238.4c0-4.31,1-12.26-3.89-12.98-12.55-1.84-24.9.09-37.39-.6-2.87-.16-5.41,2.46-5.41,5.75v303.67c0,3.17,4.18,5.31,6.89,5.3l159.41-.17c4.7,0,5.72-6.33,6.6-9.53Z"/>
      <path class="cls-1" d="M220.92,512.31c-18.85-33.66-34.11-67.64-47.35-103.77-12.01-32.77-20.85-65.35-24.92-99.82-.6-5.09-4.53-6.11-8.49-6.41-6.57-.51-9.28,1.63-11.8,7.62l-104.82,249.22L.17,614.88c-1,2.37,2.67,7.11,5.06,7.12l30.68.08c3.85,0,6.11-2.65,7.22-6.01l28.68-87.47c1.03-3.15,3.23-5.05,6.87-5.04l99.57.43c11.24.05,15.98,8.01,19.54,17.26l28.98,75.29c1.4,3.65,3.96,5.73,7.85,5.7l38.27-.3c2.28-.02,4.12-2.5,4.91-3.75,1.12-1.79.25-3.88-.98-6.07l-55.9-99.81ZM179.37,499.68c-.79,1.88-3.15,3.75-6.09,3.74l-72.17-.3c-5.77-.02-11.91-1.41-13.63-6.64-2.23-6.79-.76-14.13,1.69-21.12l33.64-95.71c.87-2.48,3.85-4.02,5.58-3.69,1.88.35,4.55,1.97,5.31,4.6,11.36,39.19,26.08,76.45,44.76,112.72,1.16,2.25,1.66,4.62.91,6.39Z"/>
      <path class="cls-1" d="M839.86,314.42c6.79-4.63,13.04-8.53,16.49-16.31,3.99-9-.18-20.13-8.63-26.03-12.37-8.63-20.19-8.05-34.49-12.4-7.6-2.31-14.45-4.31-22.07-6.98l-12.91-4.53c-5.43-1.9-25.64-8.8-29.5-7.88-4.21,1.01-6.21-1.97-9.14-2.69-26.26-6.49-52.27-11.66-77.71-20.98-4.26-1.56-9.53-3.79-10.69-8.23-1.12-4.29,3.86-7.04,5.68-9.86-4.15-.3-11.28,6.43-8.06,10.97,7.84,11.08,21.62,15.58,33.93,19.44l15.28,4.79c20.23,6.34,40.37,12.23,61.06,17.16,7.41,1.76,13.42,2.42,20,7.42,2.34,1.78,7.74,1.78,10.94,3.29,25.28,11.9,46.38,8.32,57.44,23.64,4.41,6.12,1.15,12.11-3.81,16.3l-22.47,19.01c-10.02,8.48-20.79,14.51-32.04,21.49,8.54-1.72,15.66-5.43,22.79-9.49l12.73-7.25c5.21-2.97,9.81-7.22,15.2-10.89Z"/>
      <path class="cls-1" d="M749.47,25.21c6.1.19,10.16-1.88,15.31-3.7l19.78-6.99,13.24-3.73c24.67-6.94,33.02,6.68,47.14,18.85,5.34,4.6,9.86,10.41,16.27,14.2,6.88,4.07,13.13,8.84,19.48,13.74,2.68,2.06,3.72,2.12,5.36,5.39,3.58,7.16,10.84,11.68,15.54,18.04,10.8,14.63,25.42,20.38,39.69,28.31,3.64,2.02,7.34,4.72,11.28,2.8-12.68-5.6-30.49-18.43-39.24-27.01-7.42-7.29-22.76-31.63-35.83-40.02-7.84-5.03-23.5-18.11-28.9-24.6-4.82-5.8-10.77-9.77-16.51-14.26-17.62-13.75-44.28-1.72-62.02,6.91l-11.6,5.64c-6.3,3.06-12.68,4.76-18.35,8.12,3.68,2.61,6.5-1.79,9.38-1.7Z"/>
      <path class="cls-1" d="M415.16,172.18c7.83-3.72,14.97-7.76,20.35-14.32,5.56-2.15,9.57-5.63,15.28-6.08,4.72-3.88,9.94-4.32,16.22-4.64-7.14-5.62-36.29,1.14-41.33,9.93-5.66,3.05-12.31,3.89-17.63,7.67l-29.55,20.97,10.42-1.14c9.34-3.06,17.42-8.19,26.25-12.39Z"/>
      <path class="cls-1" d="M692.49,108.11c3.86-1.88,7.7.45,11.84-1.1-4.72-3.14-10.59-2.98-16.06-.34-11.74,5.68-8.42,30.83-6.94,42.01.24,1.83-.93,6.81,1.45,6.87,9.67.24,18.55-.51,27.95,1.18,1.44.26,2.98-2.63,2.85-3.86l-3.31-32.17c-3.07,10.31-1.98,20.64-1.99,31.93-8.26,2.13-15.98,2.04-24.07.25l.24-32.15c.04-4.87,3.8-10.57,8.02-12.63Z"/>
      <path class="cls-1" d="M572.5,94.81c-2.07,18.42,1.64,14.62,2.56,28.85l21.11-.28c-1.4-7.33-.43-13.91-3.07-21.47-3.02,5.2-1.59,11.61-2.77,18-2.31,2.32-9.7,2.59-11.97.52-1.58-6.58-.71-14.9-.88-21.93l13.59-.87c-5.9-2.51-11.69-4.19-18.58-2.83Z"/>
      <path class="cls-1" d="M629.09,97.72c-3.6-1.26-10.78-5.5-15.62-2.51-6.52,4.02-.26,21.59.22,28.32l19.85.04c.09-7.7.41-14.11-1.11-21.51-3.56,6.02-4.36,11.89-3.07,18.93l-13.01-.08-.97-19.8c-.27-5.48,8.37-2.89,13.72-3.39Z"/>
      <path class="cls-1" d="M746.59,93.33c-.05.15-.16.28-.25.41.07,0,.14-.1.25-.41Z"/>
      <path class="cls-1" d="M546.09,115.51l-1.93,15.84,1.24,20.22c.28,4.63-.74,9.8,4.12,12.49.14-7.23.75-12.93.94-19.27l.87-29.22c.29-9.63,3.69-27.15.75-36.15-.62-1.91,1.51-3.17,2.4-3.65,1.5-.8,4.13,1.05,5.92,1.05l71.72-.18c4.41-.01,9.01-.84,13.24-1.36,8.08-1,15.3-.47,23.27-.37l66.55.84c.33,2.39,2.01,6.28,1.39,9.02-1.19,5.25.43,9.51.5,14.72l.66,48.26c.06,4.53-1.6,10.21,3.95,12.45-1.28-6.71.38-10.71.61-15.84l1.43-30.67c.07-1.51,3.93-2.06,3.42-4.12-.49-1.96-2.42-2.78-4.26-4.02.59-2.56,7.16,1.91,3.92-1.35-4.4-4.44,1-3.45-3.76-8.06,1.6-.98,2.76-1.54,3.3-2.39-.7.05.53-15.84-.57-15.51,4.3-3.18,10.65-1.07,15.72-1.32,6.41-.31,12.11-2.78,18.22-1.08,3.89,8.04.61,19.59,2.2,32.62.6,4.9,1.66,8.79.36,13.68.91-3.39-1.3,11.57.5,12.55l5.62,3.05c5.71,3.1,9.73,13.59,18.97,12.26,3.66.16,7.16,5.06,10.44,6.85-5.07,9.93-1.43,17.46-.67,28.08l1.34,18.49c.42,5.77-1.46,11.03-.93,17.34-18.89.03-39.15,5.8-53.59,17.27,4.37.35,7.77-.77,11.46-1.95,16.1-5.13,32.74-7.32,49.57-4.91,10.91,1.56,24.92,11.7,35.24,10.95,4.12-.3,6.76.68,10.54.99,28.28,2.37,30.4-2.3,56.45-.97-7.65-4.84-66.97-5.28-73.18-8.97l-8.27-4.91c-3.57-2.12-7.85-3.4-12.51-4.85,1.47-11.18-.98-21.07-2.03-31.98-.47-4.82,2.43-9.35,1.13-14.55-1.26-5.03-2.66-11.64-.81-16.36,1.62-4.11,8.18-1.01,10.83-2.51,4.11-2.32,8.69-.87,12.09-2.06,7.14-2.5,5.57-23.73,5.34-24.16-2.79-5.24-8.99-6.07-13.19-9.45-2.13-1.71,0-7.98-3.6-9.68-6.7-3.17-5.53-11.09-9.34-12.54-5.49-2.09-7.63,4.36-13.31.62-3.47-2.28-5.49-.31-8.23,1.18-3.66,2-7.39,2.79-8.07,8.26-26.88,5.3-6.25-15.38-18.63-44.16-.96-2.22-4.79-2.34-6.63-3.66-8.6-6.15-17.51-10.65-27.47-14.12-5.31-1.85-10.34-5.28-15.79-6.46-8.08-1.75-13.31-6.91-20.13-10.54-6.13-3.26-15.05-.14-21.84-.04-10.75.15-21.71-1.36-31.82,2.01-5.61,1.87-22.84.32-31.53.78-6.19.33-11.57,2.81-18.12.93-2.72-.78-7.23,2.25-9.8-.36-1.62-1.65-.53-5.21-.96-7.16-5.7.43-4.43,9.92-4.41,14.58-.28,2.03-6.81,2.64-7.91.9-3.3-5.18-3.47-11.79-1.92-17.69,2.88-1.74,13.78,1.31,12.92-2.78-4.25-1-12.8-3.41-16.16.1-1.19,1.24-1.09,3.47-1.91,5.44-26.7-3.71-23.57,32.67-36.8,40.61-3.48,4.35,1.49,42.72.97,46.96ZM787.06,131.71c1.31-2.97,2.94-5.18,3.56-7.72.33-1.36,4.56-.75,5.08-2.02.78-1.94,1.04-3.94.55-7.11,5.93.24,10.74-1.98,14.19-6.32,14.01-6.1,5.18-.71,20.36-3.03,1.98,2.83,2.94,7.89,7.37,9.47,4.5,1.61-2.12,12.28,7.63,13.58,7.61,1.02,9.9,6.87,9.2,13.61-.53,5.11-1.08,7.4-6.37,8.84-2.77.76-4.93,2.26-8.36.28-.62-.36-1.95,1.29-.89,1.71.61.25,1.07.94,2.21,1.97-2.89,1.7-5.57-.93-8.66-1.94-.88,1.73-1.02,3.32-2.03,4.2-.82.72-2.33-.29-4.68-.45-1.04,1.07.87,1.58,1.76,3.07-5.02,2.46,1.14,54.52,1.56,55.64.87,2.32.26,5.71-1.36,6.45-1.73.79-6.87.53-7.68-1.52,3.96-14.11,1.94-43.77-1.38-58.56-.68-3.01.14-5.59,2.58-7.3-4.23-1.17-6.66-3.65-8.9-5.9-3.98-4-7.14-2.45-10.8-2.25-6.19.33-8.24-7.38-9.2-11.74-.5-1.43-6.8-.5-5.72-2.95ZM744.25,56.26l18.56,7.98c-8.86,1.87-16.39,2.09-24.48,1.39-2.1-4.27-4.06-7.88-5.05-12.75,4.89-1.41,7.51,1.9,10.97,3.38ZM569.79,43.73c3.33-4.25,6.86-7.52,13.07-5.55.14,3.75.02,6.66.56,10.3,6.3.56,12.48.9,18.76-.41l1.38-8.99c4.54,2.97,9.82.68,13.5,2.29,6.2,2.72,11.06.27,16.99.37,9.96.18,19.9,1.99,30.03-1.12,4.11-1.26,8-.25,12.16-.16l35.22.79c2.28.81,23.84,24.02,20.98,26.4-7.67-2.86-25.58-1.07-30.86-1.2-13.77-.34-47.89-.87-60.28.61-4.08.49-7.41,1.6-11.71.73-3.58-.72-8.44,3.27-11.6,1.84-4.21-1.91-6.48-.77-10.01-.66-4.96.16-9.73-.61-15.02-.07-11.84,1.21-25.41-1.04-38.03-.2,12.28-15.34,4.88-12.25,14.86-25Z"/>
      <path class="cls-1" d="M431.84,85.6c7.11-.39,9.38,3.93,12.75,8.25,1.92,2.46,6.79,2.62,10.08,5.56-1.72-5.05-4.27-7.38-7.92-8.42,7.35-2.68-11.16-8.61-10.58-12.84-.91-3.17,2.79-6.03,2.42-9.27-1.34-11.76,12.84-2.17,17.07-8.51,1.7-2.56,1.33-9,5.68-8.59,5.4.51,5.57-4.26,8.68-5.86,3.54-1.81,12.4,1.26,14.37,4.58,1.85,3.12,2.38,4.83,6.02,6.87,3.02,1.69,4.04,5.75,8.99,5.96,2.48.11,5.2,4.1,5.44,6.3.26,2.29-2.44,4.54-3.38,6.84,3.18.67,5.44,1.26,7.13,3.02,1.68,1.75-1.3,3.95-1.01,6.23.35,2.81.9,4.94-.28,7.01-1.13,1.99-5.67.49-7.04,2.05-4.06,4.65-9.38,10.86-16.6,7.58-3.64-1.66-.79-4.57-16.65-1.88-2.75.47-4.7-.4-5.86-3.07-2.36.96-4.38,1.64-6.48,2,2.96,1.83,5.47.67,7.14,1.98,4,3.13,3.71,5.89,3.62,10.08-.47,21.62,5.68,39.34,1.22,64.78,10.19-1.36,4.82-63.85,2.42-71.14,3.57-1.76,6.07-2.35,10.14-2.83-3.04,4.81-2.47,8.56-2.34,13.57l.66,26.17c.02.71,3.63,31.38,5.13,34.69,3.66-9.87.09-18.32,1.68-28.09,3.78,2.16,7.47,5.79,11.95,6.4,17.99,2.47,27.17,14.15,45.69,14.52l14.53.29-30.16-12.55c-7.51-3.13-13.28-9.7-22.28-9.72l-20.99-.04c-2.5-16.44,2.13-21.84-1.98-42.12,9.21,4.43,14.87-1.59,21.15-4.83,6.26-3.24,8.24-5.06,10.34-11.58,2.33-7.23-.72-10.1-2.42-15.42-2.35-7.38-3.6-15.09-13.46-17.02-3.44-.67-5.43-8.24-8.71-10.13-5.88-3.38-12.52-6.47-19.1-6.53-3.4-.03-4.56,6.07-7.09,6.39-6.73.87-8.5,5.5-11.14,9.64-3.46,2.82-14.36.01-16.58,6.53-1.14,3.34-1.17,7.39-2.74,10.87-1.59,3.54,1.44,8.23.48,12.29Z"/>
      <path class="cls-1" d="M698.89,716.6c.33-3.11,2.22-6.41,6.11-8.02,4.48-1.86,10.79-1.17,14.29,2.37,3.97,4.01,3.21,10.34,8.47,13.27,1.21-6.61.51-11.5.41-18.24-7.83,2.99-18.65-5.34-30.82,2.78-8.96,5.98-10.7,18.72-2.71,25.55,9.01,7.7,31.4,8.25,26.49,24.5-1.6,5.28-6.78,8.13-13.03,8.02-16.5-.28-15.67-18.8-19-16.39-.55.39-1.34,1.55-1.17,2.67l1.99,12.7c5.25,3.66,10.77,2.86,17.03,3.42,13,1.18,26.52-8.76,23.76-23.33-3.48-18.34-33.52-13.27-31.81-29.29Z"/>
      <path class="cls-1" d="M514.61,726.16c2.81-7.03,1.48-13.89-.78-19.98l-53.39.1c.54,8.8-4.87,15.31-1.83,18.98,2.13,2.58,5.12-17.84,22.74-16.25l.13,56.22c-2.71-.76-7.4.21-9.91,2.96,11.14,1.48,21.45,1.23,31.34-.67-3.2-2.75-6.24-1.11-9.36-2.69l-.03-55.5c.07-.06.15-.12.21-.18,10.91-1.45,17.19,6.66,20.89,17.01Z"/>
      <path class="cls-1" d="M905.67,757.05l-8.39-12.96c-1.08-1.68-3.06-2.8-2.56-4.9.77-3.28,14.3-4.73,13.46-17.41-1.43-21.45-37.21-14.58-52.25-15.05,2.82,3.85,6.48,1.37,9.53,3.79l-.49,52.77c-.5,3.42-7.25,1.43-8.83,4.17,9.76,1.13,19.15.97,28.22-.02-2.24-2.57-7.44-.53-7.77-3.87-.83-8.44-.28-16.62-.13-25.33,7.78-3.48,16.52,22.54,22.84,29.89,7.03-.28,12.18,1.01,18.84-.85-5.74-2.52-9.22-5.19-12.48-10.24ZM876.87,734.34c-1.78-8-.06-16.85-.56-24.59,6.78-1.44,13.2-.92,16.99,4.03,3.76,4.91,3.98,11.87.09,17.28-2.84,3.95-12.77,6.66-16.52,3.28Z"/>
      <path class="cls-1" d="M773.37,733.27c7.96-1.25,15.46-7.54,13.28-15.73-4.17-15.66-36.52-10.66-49.64-10.89,2.01,4.49,5.91,1.46,8.45,3.79l-.14,54c-2.99,1.8-5.92.65-8.08,3.2,16.18.17,53.73,5.31,52.71-17.73-.51-11.57-13.11-12.1-16.56-16.64ZM756.59,709.5c6.04-1.08,12.91-.37,16.03,4.88,2.78,4.67,3.19,12.11-2.18,16.03-4.5,3.28-8.99,4.66-13.91,3.39l.06-24.3ZM775.82,758.55c-2.62,5.34-12.78,10.69-18.47,5.33-2.84-7.61.04-17.89-.99-27,4.73-1.5,10.38-.97,14.41,1.74,6.93,4.67,8.55,12.78,5.05,19.93Z"/>
      <path class="cls-1" d="M844.52,759.47l-18.28-54.17c-5.85,1.49-8.06,6.71-10,12.08l-14.74,40.87c-1.95,5.4-5.94,6.92-11.08,9.27,8.19,1.53,14.99.48,22.01-.07-2.82-3.26-6.61-1.75-7.49-3.74-1.71-3.86,3.23-17.25,6.37-20.19,3.41-1.7,12.34-1.9,15.19.48,2.19,1.66,8.04,21.07,4.61,21.83l-5.62,1.24c-.8,2.78,27.61.93,28.35-.09-5.32-1.36-7.84-3.13-9.32-7.5ZM810.59,740.77l8.32-22.02c3.79,6.91,4.11,13.49,7.11,21.27-5.5,1.17-9.52.82-15.43.75Z"/>
      <path class="cls-1" d="M562.62,758.57l-17.39-53.36c-6.97,1.74-8.65,7.29-10.7,13.01l-14.37,39.92c-1.79,4.98-5.22,6.75-9.87,9.46,8.19,1.69,15.32,1.32,22.03-.38-3.12-2.1-9.08-.72-9.24-4.69-.29-7.05,3.61-12.93,5.65-19.53,4.86.45,12.39-2.56,16.16.81,2.83,4.14,8.89,18.58,4.29,21.59-1.03.67-3.03-.07-5.08,1.9,1.63.7,25.86,2.56,28.3-.42-5.44-.96-8.12-3.23-9.78-8.3ZM529.62,739.88c2.09-7.15,4.38-13.48,7.66-20.76,3.7,6.68,4.23,12.32,7.23,20.6-4.8,1.76-9.27,1.37-14.9.16Z"/>
      <path class="cls-1" d="M677.06,764.1l-20.7-59.25c-2.91,2.41-7,4.51-8.39,7.15-.68,3.95-1.31,7.55-2.8,11.52l-13,34.7c-1.86,4.97-5.08,6.51-9.86,9.35,8.39.73,15.07,1.16,21.98-.22l-7.19-2.49c-5.04-1.74,2.43-19.95,4.37-21.19,4.14-1.95,12-1.69,15.36-.47,2.7,4.44,9,18.68,4.48,22.08-1.17.88-3.73-.27-5.31,2.57l28.43-.02c-1.86-2.96-5.09-1.74-7.37-3.74ZM641.68,740.48c2.74-7.2,3.74-14.02,7.83-21.47,3.2,6.96,4.45,12.59,7.11,20.75-5.16,1.45-9.57,1.68-14.94.72Z"/>
      <path class="cls-1" d="M625.87,716.7c-5.99-14.81-39.58-9.67-51.1-9.83,2.22,3.49,5.37,1.96,7.85,2.3l.19,55.9h0s0,0,0,0c-2.6,1.06-5.58.36-8.19,2.44,10.6.3,19.95.59,29.63-.15l-9.4-2.68v-24.36c14.19-2.72,4.46,2.09,19.26-2.48,8.85-2.73,15.57-11.72,11.77-21.13ZM608.75,735.55c-4.04,2.62-9.21,2.16-13.43,1.4l-.61-27.62c4.49-.24,8.66-1.08,12.66.57,4.87,2,7.14,7.62,7.36,11.85.26,5.14-.86,10.48-5.98,13.8Z"/>
    </g>
  </g>
</svg>